<mxfile host="app.diagrams.net" modified="2024-03-05T13:52:28.702Z" agent="Mozilla/5.0 (Macintosh; Intel Mac OS X 10_15_7) AppleWebKit/537.36 (KHTML, like Gecko) Chrome/122.0.0.0 Safari/537.36" etag="NHt2SRfEirUTwWpo37Gv" version="23.1.5" type="device">
  <diagram name="Page-1" id="SXdKMFut-E14BZwbjnQe">
    <mxGraphModel dx="726" dy="592" grid="1" gridSize="10" guides="1" tooltips="1" connect="1" arrows="1" fold="1" page="1" pageScale="1" pageWidth="850" pageHeight="1100" math="0" shadow="0">
      <root>
        <mxCell id="0" />
        <mxCell id="1" parent="0" />
        <mxCell id="sB821dwFCgiD_Lzr--KW-4" value="tt" style="rounded=0;whiteSpace=wrap;html=1;" vertex="1" parent="1">
          <mxGeometry x="40" y="330" width="520" height="540" as="geometry" />
        </mxCell>
        <mxCell id="sB821dwFCgiD_Lzr--KW-6" value="" style="image;points=[];aspect=fixed;html=1;align=center;shadow=0;dashed=0;image=img/lib/allied_telesis/storage/Datacenter_Server_Rack_EoR.svg;" vertex="1" parent="1">
          <mxGeometry x="436.70000000000005" y="560" width="85.8" height="173.4" as="geometry" />
        </mxCell>
        <mxCell id="sB821dwFCgiD_Lzr--KW-7" value="" style="outlineConnect=0;dashed=0;verticalLabelPosition=bottom;verticalAlign=top;align=center;html=1;shape=mxgraph.aws3.mobile_client;fillColor=#D2D3D3;gradientColor=none;" vertex="1" parent="1">
          <mxGeometry x="450" y="760" width="40.5" height="63" as="geometry" />
        </mxCell>
        <mxCell id="sB821dwFCgiD_Lzr--KW-8" value="" style="html=1;verticalLabelPosition=bottom;align=center;labelBackgroundColor=#ffffff;verticalAlign=top;strokeWidth=4;strokeColor=#333333;shadow=0;dashed=0;shape=mxgraph.ios7.icons.monitor;" vertex="1" parent="1">
          <mxGeometry x="300" y="350" width="170" height="110.5" as="geometry" />
        </mxCell>
        <mxCell id="sB821dwFCgiD_Lzr--KW-11" value="" style="rounded=1;whiteSpace=wrap;html=1;" vertex="1" parent="1">
          <mxGeometry x="60" y="506" width="240" height="260" as="geometry" />
        </mxCell>
        <mxCell id="sB821dwFCgiD_Lzr--KW-5" value="" style="shape=image;html=1;verticalAlign=top;verticalLabelPosition=bottom;labelBackgroundColor=#ffffff;imageAspect=0;aspect=fixed;image=https://cdn1.iconfinder.com/data/icons/fruit-136/64/Fruit_iconfree_Filled_Outline_raspberry-healthy-organic-food-fruit_icon-128.png" vertex="1" parent="1">
          <mxGeometry x="70" y="510" width="40" height="40" as="geometry" />
        </mxCell>
        <mxCell id="sB821dwFCgiD_Lzr--KW-12" value="Car On-board omputer" style="text;html=1;align=center;verticalAlign=middle;whiteSpace=wrap;rounded=0;" vertex="1" parent="1">
          <mxGeometry x="117.5" y="510" width="125" height="30" as="geometry" />
        </mxCell>
        <mxCell id="sB821dwFCgiD_Lzr--KW-14" value="Infotainment display" style="text;html=1;align=center;verticalAlign=middle;whiteSpace=wrap;rounded=0;" vertex="1" parent="1">
          <mxGeometry x="328.75" y="380" width="112.5" height="30" as="geometry" />
        </mxCell>
        <mxCell id="sB821dwFCgiD_Lzr--KW-15" value="Python infotainment backend" style="rounded=1;whiteSpace=wrap;html=1;" vertex="1" parent="1">
          <mxGeometry x="120" y="550" width="120" height="60" as="geometry" />
        </mxCell>
        <mxCell id="sB821dwFCgiD_Lzr--KW-16" value="Python backend for mobile" style="rounded=1;whiteSpace=wrap;html=1;" vertex="1" parent="1">
          <mxGeometry x="120" y="653.4" width="120" height="60" as="geometry" />
        </mxCell>
        <mxCell id="sB821dwFCgiD_Lzr--KW-19" style="edgeStyle=orthogonalEdgeStyle;rounded=0;orthogonalLoop=1;jettySize=auto;html=1;exitX=0.5;exitY=1;exitDx=0;exitDy=0;exitPerimeter=0;entryX=0.5;entryY=1;entryDx=0;entryDy=0;" edge="1" parent="1" source="sB821dwFCgiD_Lzr--KW-7" target="sB821dwFCgiD_Lzr--KW-16">
          <mxGeometry relative="1" as="geometry" />
        </mxCell>
        <mxCell id="sB821dwFCgiD_Lzr--KW-20" style="edgeStyle=orthogonalEdgeStyle;rounded=0;orthogonalLoop=1;jettySize=auto;html=1;exitX=1;exitY=0.5;exitDx=0;exitDy=0;entryX=-0.022;entryY=0.708;entryDx=0;entryDy=0;entryPerimeter=0;" edge="1" parent="1" source="sB821dwFCgiD_Lzr--KW-16" target="sB821dwFCgiD_Lzr--KW-6">
          <mxGeometry relative="1" as="geometry" />
        </mxCell>
        <mxCell id="sB821dwFCgiD_Lzr--KW-13" style="edgeStyle=orthogonalEdgeStyle;rounded=0;orthogonalLoop=1;jettySize=auto;html=1;exitX=1;exitY=0.5;exitDx=0;exitDy=0;startArrow=none;startFill=0;strokeWidth=1;" edge="1" parent="1" source="sB821dwFCgiD_Lzr--KW-15" target="sB821dwFCgiD_Lzr--KW-8">
          <mxGeometry relative="1" as="geometry" />
        </mxCell>
        <mxCell id="sB821dwFCgiD_Lzr--KW-21" style="edgeStyle=orthogonalEdgeStyle;rounded=0;orthogonalLoop=1;jettySize=auto;html=1;exitX=0.5;exitY=1;exitDx=0;exitDy=0;entryX=-0.002;entryY=0.42;entryDx=0;entryDy=0;entryPerimeter=0;startArrow=classic;startFill=1;endArrow=none;endFill=0;" edge="1" parent="1" source="sB821dwFCgiD_Lzr--KW-15" target="sB821dwFCgiD_Lzr--KW-6">
          <mxGeometry relative="1" as="geometry" />
        </mxCell>
      </root>
    </mxGraphModel>
  </diagram>
</mxfile>
